<?xml version="1.0" encoding="UTF-8"?>
<svg width="22px" height="20px" viewBox="0 0 22 20" version="1.1" xmlns="http://www.w3.org/2000/svg" xmlns:xlink="http://www.w3.org/1999/xlink">
    <title>D0B80F8A-EF19-4AB3-B72E-313F36DE84EC</title>
    <g id="Page-1" stroke="none" stroke-width="1" fill="none" fill-rule="evenodd">
        <g id="Aprende-con-nosotros" transform="translate(-172.000000, -3323.000000)" fill="#565656" fill-rule="nonzero">
            <g id="Group-10" transform="translate(148.000000, 3287.372569)">
                <g id="Group-5" transform="translate(24.000000, 35.045455)">
                    <g id="time-/-calendar" transform="translate(0.000000, 0.909091)">
                        <path d="M8.13478682,2.34090909 L8.13465891,3.03090909 L14.1326589,3.03090909 L14.133624,2.34090909 L15.6333333,2.34090909 L15.6326589,3.03090909 L17.1330426,3.03169856 C17.9613092,3.03169856 18.6327519,3.65025253 18.6327519,4.41327751 L18.6327519,14.7751196 C18.6327519,15.5381446 17.9613092,16.1566986 17.1330426,16.1566986 L5.13536822,16.1566986 C4.30710164,16.1566986 3.63565891,15.5381446 3.63565891,14.7751196 L3.63565891,4.41327751 C3.63565891,3.65025253 4.30710164,3.03169856 5.13536822,3.03169856 L6.63465891,3.03090909 L6.63507752,2.34090909 L8.13478682,2.34090909 Z M17.1326589,7.86690909 L5.13465891,7.86690909 L5.13536822,14.7751196 L17.1330426,14.7751196 L17.1326589,7.86690909 Z M6.63465891,4.41290909 L5.13536822,4.41327751 L5.13465891,6.48490909 L17.1326589,6.48490909 L17.1330426,4.41327751 L15.6326589,4.41290909 L15.6333333,5.10406699 L14.133624,5.10406699 L14.1326589,4.41290909 L8.13465891,4.41290909 L8.13478682,5.10406699 L6.63507752,5.10406699 L6.63465891,4.41290909 Z" id="icon"></path>
                    </g>
                </g>
            </g>
        </g>
    </g>
</svg>