<svg xmlns="http://www.w3.org/2000/svg" xmlns:xlink="http://www.w3.org/1999/xlink" width="32" height="32" viewBox="0 0 32 32">
  <defs>
    <path id="group-4-a" d="M22,6.44 L22,8.16 C22,8.95529004 21.35529,9.6 20.56,9.6 L18.4545455,9.6 L18.4545455,9.6 C17.6390909,9.6 17.2727273,10.5315 17.2727273,11.325 L17.2727273,14.2 L19.3781818,14.2 C20.1734719,14.2 20.8181818,14.84471 20.8181818,15.64 L20.8181818,17.36 C20.8181818,18.15529 20.1734719,18.8 19.3781818,18.8 L17.2727273,18.8 L17.2727273,18.8 L17.2727273,26.56 C17.2727273,27.35529 16.6280173,28 15.8327273,28 L13.9854545,28 C13.1901645,28 12.5454545,27.35529 12.5454545,26.56 L12.5454545,18.8 L12.5454545,18.8 L10.44,18.8 C9.64470996,18.8 9,18.15529 9,17.36 L9,15.64 C9,14.84471 9.64470996,14.2 10.44,14.2 L12.5454545,14.2 L12.5454545,14.2 L12.5454545,9.6 C12.5454545,7.05949015 14.6619266,5 17.2727273,5 L20.56,5 C21.35529,5 22,5.64470996 22,6.44 Z"/>
  </defs>
  <g fill="none" fill-rule="evenodd">
    <rect width="32" height="32" rx="2"/>
    <use fill="#FFF" fill-rule="nonzero" xlink:href="#group-4-a"/>
  </g>
</svg>
