<svg xmlns="http://www.w3.org/2000/svg" xmlns:xlink="http://www.w3.org/1999/xlink" width="32" height="32" viewBox="0 0 32 32">
  <defs>
    <path id="group-3-a" d="M16.5,10.5181452 C13.2540323,10.5181452 10.5645161,13.1612903 10.5645161,16.453629 C10.5645161,19.7459677 13.2076613,22.3891129 16.5,22.3891129 C19.7923387,22.3891129 22.4354839,19.6995968 22.4354839,16.453629 C22.4354839,13.2076613 19.7459677,10.5181452 16.5,10.5181452 Z M16.5,20.2560484 C14.4133065,20.2560484 12.6975806,18.5403226 12.6975806,16.453629 C12.6975806,14.3669355 14.4133065,12.6512097 16.5,12.6512097 C18.5866935,12.6512097 20.3024194,14.3669355 20.3024194,16.453629 C20.3024194,18.5403226 18.5866935,20.2560484 16.5,20.2560484 Z M22.6673387,11.7237903 C23.4100281,11.7237903 24.0120968,11.1217216 24.0120968,10.3790323 C24.0120968,9.63634289 23.4100281,9.03427419 22.6673387,9.03427419 C21.9246493,9.03427419 21.3225806,9.63634289 21.3225806,10.3790323 C21.3225806,11.1217216 21.9246493,11.7237903 22.6673387,11.7237903 Z M26.1451613,6.90120968 C24.9395161,5.64919355 23.2237903,5 21.2762097,5 L11.7237903,5 C7.68951613,5 5,7.68951613 5,11.7237903 L5,21.2298387 C5,23.2237903 5.64919355,24.9395161 6.94758065,26.1915323 C8.19959677,27.3971774 9.86895161,28 11.7701613,28 L21.2298387,28 C23.2237903,28 24.8931452,27.3508065 26.0987903,26.1915323 C27.3508065,24.9858871 28,23.2701613 28,21.2762097 L28,11.7237903 C28,9.77620968 27.3508065,8.10685484 26.1451613,6.90120968 Z M25.9596774,21.2762097 C25.9596774,22.7137097 25.4495968,23.8729839 24.6149194,24.6612903 C23.7802419,25.4495968 22.6209677,25.8669355 21.2298387,25.8669355 L11.7701613,25.8669355 C10.3790323,25.8669355 9.21975806,25.4495968 8.38508065,24.6612903 C7.55040323,23.8266129 7.13306452,22.6673387 7.13306452,21.2298387 L7.13306452,11.7237903 C7.13306452,10.3326613 7.55040323,9.1733871 8.38508065,8.33870968 C9.1733871,7.55040323 10.3790323,7.13306452 11.7701613,7.13306452 L21.3225806,7.13306452 C22.7137097,7.13306452 23.8729839,7.55040323 24.7076613,8.38508065 C25.4959677,9.21975806 25.9596774,10.3790323 25.9596774,11.7237903 L25.9596774,21.2762097 L25.9596774,21.2762097 Z"/>
  </defs>
  <g fill="none" fill-rule="evenodd">
    <rect width="32" height="32" rx="2"/>
    <use fill="#FFF" fill-rule="nonzero" xlink:href="#group-3-a"/>
  </g>
</svg>
