<svg xmlns="http://www.w3.org/2000/svg" xmlns:xlink="http://www.w3.org/1999/xlink" width="26" height="22" viewBox="0 0 26 22">
  <defs>
    <path id="rectangle-copy-a" d="M12.6909937,7.77730878 C12.6909937,7.77730878 8.6735235,8.6998668 4.19055993,3.51090537 C4.19055993,3.51090537 2.44392383,6.91253886 5.47170265,8.9877815 C5.47170265,8.9877815 4.48235658,9.16080387 3.6663619,8.58463253 C3.6663619,8.58463253 3.31689656,11.5246451 6.92688741,12.6776716 L5.00551864,12.6776716 C5.00551864,12.6776716 5.53006198,15.0415128 8.90661551,15.560238 C8.90661551,15.560238 7.50944476,17.4050121 2.96777653,17.2897778 C2.96777653,17.2897778 5.53006198,19.2497862 9.43115885,19.1919981 C9.43115885,19.1919981 16.6501046,19.5380428 20.0853628,11.466515 C20.9300191,9.48154494 20.8423075,7.60428641 20.7839481,6.68138645 L22.9964229,4.72172003 L20.7839481,5.12521093 C20.7839481,5.12521093 22.2978376,4.02997248 22.4729156,2.99218019 L20.0273488,3.97218438 C20.0273488,3.97218438 18.1933463,2.32915573 15.0782012,2.99218019 C15.0778559,2.99218019 12.2255003,3.56869347 12.6909937,7.77730878 Z M14.9678693,0.184717871 C17.0746194,-0.225457246 18.9667066,0.0720996031 20.5601596,0.833617853 C20.6470482,0.87514232 20.7309988,0.917006966 20.8120099,0.959040965 L22.3734831,0.333316794 C23.9816233,-0.311108087 25.6811241,1.03679087 25.3985121,2.73060223 C26.164305,3.5636193 26.2858017,4.95548041 25.2508831,5.872144 L23.6493736,7.2906571 C23.6690241,9.03489068 23.4274376,10.5987294 22.6856653,12.3419185 C21.3632413,15.4491035 19.4669366,17.7859494 17.1469636,19.4113932 C15.5071627,20.5602879 13.752657,21.2898042 11.9844716,21.6823747 C10.8416098,21.9361116 9.87207514,22.0152763 9.15869883,21.9976478 C6.98101434,22.0219904 4.97512524,21.5659425 3.18545408,20.7901825 C2.120612,20.3286105 1.33833425,19.8517628 0.868219222,19.4921505 C-0.831318475,18.192097 0.136248448,15.4980376 2.28313456,15.5525098 C2.69527985,15.5629671 3.08131445,15.5569839 3.44235651,15.5362423 C2.75873343,14.7336613 2.39586098,13.9266106 2.24849561,13.2625123 C2.1973149,13.0318677 2.18454152,12.8032841 2.2054474,12.5825835 C2.06357388,12.4130948 1.93132667,12.2372376 1.808743,12.0553155 C0.940080008,10.7661632 0.683781184,9.44088592 0.755726079,8.30928275 C0.764030912,8.19756821 0.764030912,8.19756821 0.771511218,8.13067106 C0.810578958,7.80199857 0.917215279,7.50532326 1.07380495,7.24837387 C0.613784714,5.79725519 0.718210806,4.33806026 1.15159975,2.96420511 C1.29255723,2.51736593 1.44095419,2.16788632 1.56138234,1.93334839 C2.27891959,0.535920075 4.20031947,0.309121294 5.22949064,1.50037111 C6.84993198,3.37600704 8.45050871,4.49121313 9.97702079,5.03159591 C10.1664044,5.0986374 10.348348,5.15495477 10.5223992,5.20164384 C11.0083112,2.16447925 13.0272547,0.347972136 14.9678693,0.184717871 Z M4.59388391,6.64586928 C4.59432864,6.64583062 4.59200468,6.64609869 4.58905436,6.64647937 L4.59388391,6.64586928 Z"/>
  </defs>
  <g fill="none" fill-rule="evenodd">
    <mask id="rectangle-copy-b" fill="#fff">
      <use xlink:href="#rectangle-copy-a"/>
    </mask>
    <use fill="#FFF" fill-rule="nonzero" xlink:href="#rectangle-copy-a"/>
    <rect width="32" height="32" x="-3" y="-6" mask="url(#rectangle-copy-b)" rx="2"/>
  </g>
</svg>
